<?xml version="1.0" encoding="UTF-8" standalone="no"?>
<svg
   width="82"
   height="82"
   viewBox="0 0 82 82"
   fill="none"
   version="1.1"
   id="svg2"
   sodipodi:docname="Vector.svg"
   xml:space="preserve"
   inkscape:export-filename="../../Projects/ZenFlow/src-tauri/icons/zenflow.svg"
   inkscape:export-xdpi="58.540001"
   inkscape:export-ydpi="58.540001"
   xmlns:inkscape="http://www.inkscape.org/namespaces/inkscape"
   xmlns:sodipodi="http://sodipodi.sourceforge.net/DTD/sodipodi-0.dtd"
   xmlns="http://www.w3.org/2000/svg"
   xmlns:svg="http://www.w3.org/2000/svg"><sodipodi:namedview
     id="namedview2"
     pagecolor="#505050"
     bordercolor="#ffffff"
     borderopacity="1"
     inkscape:showpageshadow="0"
     inkscape:pageopacity="0"
     inkscape:pagecheckerboard="1"
     inkscape:deskcolor="#505050"
     showgrid="false" /><path
     d="M 76.3055,0 H 5.69444 C 2.54949,0 0,2.23858 0,5 v 72 c 0,2.7614 2.54949,5 5.69444,5 H 76.3055 C 79.4505,82 82,79.7614 82,77 V 5 C 82,2.23858 79.4505,0 76.3055,0 Z"
     fill="url(#paint0_linear_2_8)"
     id="path1"
     style="fill:url(#paint0_linear_2_8)" /><defs
     id="defs2"><linearGradient
       id="paint0_linear_2_8"
       x1="41"
       y1="0"
       x2="41"
       y2="82"
       gradientUnits="userSpaceOnUse"><stop
         stop-color="#26C9FD"
         id="stop1" /><stop
         offset="1"
         stop-color="#246EFD"
         id="stop2" /></linearGradient></defs><g
     style="fill:none"
     id="g2"
     transform="translate(13.869818,10.43395)"><path
       fill-rule="evenodd"
       clip-rule="evenodd"
       d="m 3.62812,0 c -0.535,0 -0.9753,0.4211 -0.999,0.9556 l -0.7792,17.5308 c 2.2209,-1.706 4.8184,-3.1114 7.4608,-4.2143 3.03288,-1.266 6.17588,-2.1549 8.97058,-2.641 2.7531,-0.4788 5.3172,-0.5933 7.1307,-0.1903 l -0.6507,2.9285 c -1.2431,-0.2762 -3.3488,-0.2378 -5.966,0.2174 -2.5756,0.448 -5.5033,1.2744 -8.329,2.4539 -2.83028,1.1814 -5.50728,2.6958 -7.61748,4.4951 -0.4206,0.3586 -0.8157,0.7259 -1.1833,1.1014 L 0.00100636,60.0877 C -0.0242836,60.6568 0.430316,61.1321 1.00002,61.1321 H 53.2603 c 0.5654,0 1.0183,-0.4683 0.9995,-1.0333 L 53.2582,30.0531 c -0.5397,0.0697 -1.1097,0.1568 -1.7066,0.2622 -2.9063,0.5135 -6.2711,1.4293 -9.5333,2.7011 -3.2687,1.2744 -6.3776,2.8842 -8.8086,4.761 -2.448,1.8899 -4.0738,3.9448 -4.6347,6.076 L 25.6738,43.09 c 0.7976,-3.031 2.9925,-5.595 5.7026,-7.6872 2.727,-2.1053 6.1133,-3.8407 9.5522,-5.1815 3.4454,-1.3432 7.0004,-2.3124 10.1011,-2.8602 0.7269,-0.1285 1.4395,-0.2357 2.1282,-0.319 L 52.2887,0.9667 C 52.2707,0.4277 51.8286,0 51.2892,0 Z"
       fill="#ffffff"
       id="path1-9" /></g></svg>
